<?xml version="1.0" standalone="no"?>
<!DOCTYPE svg PUBLIC "-//W3C//DTD SVG 20010904//EN"
 "http://www.w3.org/TR/2001/REC-SVG-20010904/DTD/svg10.dtd">
<svg version="1.0" xmlns="http://www.w3.org/2000/svg"
 width="1600.000000pt" height="1597.000000pt" viewBox="0 0 1600.000000 1597.000000"
 preserveAspectRatio="xMidYMid meet">

<g transform="translate(0.000000,1597.000000) scale(0.100000,-0.100000)"
fill="#000000" stroke="none">
<path d="M7540 14395 c-41 -7 -123 -27 -183 -44 -59 -17 -115 -31 -125 -31
-18 0 -121 -37 -137 -50 -5 -4 -38 -17 -72 -29 -60 -20 -281 -133 -293 -149
-10 -14 -59 -42 -75 -42 -8 0 -15 -4 -15 -9 0 -5 -33 -33 -72 -62 -54 -39
-353 -322 -449 -425 -4 -5 -18 -19 -31 -31 -13 -12 -127 -125 -254 -251 -126
-126 -237 -231 -247 -235 -9 -3 -28 -24 -42 -47 -14 -22 -30 -40 -36 -40 -6 0
-70 -61 -143 -135 -73 -74 -137 -135 -142 -135 -5 0 -19 -16 -32 -36 -13 -19
-39 -44 -58 -56 -18 -11 -34 -26 -34 -33 0 -8 -15 -24 -32 -37 -18 -12 -114
-105 -214 -205 -99 -101 -183 -183 -187 -183 -10 0 -199 -193 -239 -245 -21
-27 -43 -68 -50 -90 -12 -44 -5 -370 12 -535 12 -125 66 -472 89 -580 44 -202
131 -475 197 -615 18 -38 50 -106 70 -150 21 -44 39 -83 41 -86 4 -7 -110 -69
-127 -69 -6 0 -48 -18 -91 -40 -44 -22 -105 -49 -136 -60 -31 -11 -59 -24 -62
-28 -8 -12 -120 -62 -138 -62 -7 0 -46 -18 -85 -41 -40 -22 -86 -43 -102 -46
-16 -4 -56 -21 -89 -39 -32 -19 -78 -40 -102 -49 -92 -31 -305 -154 -305 -175
0 -6 -6 -10 -12 -10 -14 0 -168 -140 -168 -153 0 -4 -15 -24 -34 -45 -36 -38
-146 -199 -146 -212 0 -5 -20 -49 -45 -99 -25 -50 -45 -98 -45 -107 0 -19 -37
-158 -53 -199 -8 -22 -12 -272 -15 -927 -3 -897 -3 -897 19 -947 11 -27 27
-52 35 -55 8 -3 14 -12 14 -20 0 -21 57 -60 106 -74 58 -17 137 -15 197 4 39
12 63 29 96 65 71 80 70 65 71 1009 0 674 3 834 14 875 31 111 69 203 107 257
21 31 39 60 39 65 0 12 192 193 205 193 6 0 56 22 110 50 54 27 105 50 112 50
7 0 52 20 99 45 46 25 90 45 96 45 6 0 45 17 88 39 43 21 95 44 116 51 22 7
72 30 112 51 39 22 79 39 87 39 8 0 53 20 98 45 l84 45 922 0 922 0 71 -40
c39 -22 87 -44 107 -49 20 -5 68 -22 106 -39 39 -16 93 -34 120 -40 28 -6 91
-20 140 -31 50 -11 113 -24 140 -30 208 -44 608 -42 825 4 36 7 103 21 150 30
117 23 184 43 258 77 35 15 71 28 79 28 18 0 125 48 133 60 20 28 65 30 840
30 l792 0 100 -45 c55 -25 108 -45 118 -45 10 0 61 -20 113 -45 53 -25 103
-45 111 -45 9 0 60 -20 113 -44 54 -23 112 -46 128 -49 17 -3 68 -23 115 -45
47 -21 99 -42 115 -46 17 -4 48 -16 70 -26 102 -48 159 -70 181 -70 13 0 24
-4 24 -9 0 -5 13 -14 28 -20 15 -6 41 -23 56 -36 16 -14 33 -25 37 -25 13 0
149 -135 149 -147 0 -6 7 -17 16 -24 22 -18 84 -116 84 -133 0 -8 13 -47 29
-88 16 -40 34 -108 40 -151 7 -50 11 -357 11 -855 1 -427 5 -796 9 -820 10
-49 81 -137 121 -147 14 -4 36 -11 50 -16 37 -14 110 -13 171 1 41 10 63 23
97 59 88 90 82 18 82 972 1 900 1 902 -49 1059 -11 36 -21 73 -21 84 0 29
-118 262 -151 298 -16 18 -29 40 -29 48 0 9 -20 36 -45 60 -25 24 -45 49 -45
55 -1 5 -32 37 -71 70 -39 33 -89 77 -112 98 -23 20 -47 37 -53 37 -6 0 -24
11 -39 24 -15 13 -51 36 -79 49 -138 68 -228 107 -246 107 -11 0 -28 4 -38 9
-52 28 -152 71 -189 81 -23 6 -80 28 -126 50 -46 22 -91 40 -99 40 -9 0 -66
23 -128 50 -62 28 -119 50 -127 50 -8 0 -39 11 -69 25 -30 14 -58 25 -63 25
-5 0 -14 6 -20 13 -8 10 -3 27 22 68 61 100 167 319 167 344 0 9 9 35 19 59
38 82 61 147 75 209 8 34 22 87 31 117 30 99 55 204 55 236 0 16 11 86 24 155
35 177 56 391 63 634 7 236 2 263 -53 332 -32 39 -324 333 -331 333 -2 0 -108
105 -237 233 -128 127 -245 241 -260 252 -14 11 -26 25 -26 32 0 7 -20 26 -45
43 -25 17 -45 37 -45 44 0 6 -20 26 -45 44 -25 17 -45 36 -45 41 0 5 -17 17
-37 27 -29 13 -61 17 -135 17 -53 0 -102 -6 -110 -11 -113 -91 -151 -153 -152
-247 0 -77 30 -140 102 -210 28 -29 52 -57 52 -63 0 -6 8 -13 18 -16 19 -7
159 -146 146 -146 -5 0 -54 11 -109 25 -55 14 -115 25 -132 25 -18 0 -117 18
-221 39 -103 22 -217 42 -252 46 -75 7 -145 16 -395 50 -99 13 -263 31 -365
39 -410 33 -1416 28 -1750 -8 -74 -9 -218 -27 -320 -41 -102 -14 -228 -30
-282 -35 -53 -5 -185 -27 -294 -49 -109 -23 -211 -41 -226 -41 -16 0 -76 -11
-134 -25 -122 -29 -125 -29 -101 -11 10 8 238 230 505 494 709 698 839 822
863 822 8 0 30 14 49 30 40 35 242 136 309 155 25 8 100 30 166 51 l120 38
237 4 c270 4 336 -3 485 -53 125 -43 193 -46 262 -11 57 29 113 80 137 126 24
47 25 201 2 245 -36 67 -131 135 -208 148 -19 4 -75 18 -125 32 -165 47 -240
55 -515 54 -162 -1 -282 -6 -330 -14z m860 -2435 c270 -12 515 -35 805 -75
105 -15 209 -29 233 -32 l42 -4 0 -325 0 -324 -1610 0 -1610 0 0 324 0 324 23
6 c12 3 43 6 69 6 26 0 132 13 237 30 228 36 450 57 706 68 286 13 829 14
1105 2z m-2678 -672 c2 -310 7 -461 15 -478 6 -14 27 -95 47 -180 41 -176 68
-264 102 -332 13 -26 24 -54 24 -63 0 -19 30 -80 65 -131 14 -20 25 -43 25
-50 0 -12 49 -91 79 -126 8 -9 20 -30 27 -47 l13 -31 -352 0 -352 0 -22 33
c-13 18 -23 37 -23 41 0 4 -20 35 -45 67 -25 33 -45 65 -45 72 0 7 -20 45 -45
85 -25 40 -45 78 -45 85 0 7 -20 57 -45 112 -25 55 -45 107 -45 116 0 9 -9 42
-21 75 -41 117 -79 250 -79 277 0 16 -13 99 -29 185 -27 145 -41 257 -56 452
l-5 76 78 27 c42 15 87 27 97 27 11 0 85 20 165 45 80 25 158 45 175 46 16 0
84 15 150 34 66 18 125 33 132 34 9 1 12 -112 15 -451z m4370 438 c41 -13 172
-45 283 -68 28 -6 97 -26 154 -44 57 -19 113 -34 125 -34 12 0 47 -9 79 -20
31 -11 63 -20 72 -20 34 0 6 -385 -46 -612 -11 -51 -25 -122 -29 -158 -5 -36
-25 -112 -45 -170 -20 -58 -41 -124 -46 -147 -4 -24 -26 -79 -49 -124 -22 -44
-40 -86 -40 -93 0 -15 -45 -100 -72 -135 -10 -13 -18 -30 -18 -37 0 -12 -61
-106 -80 -124 -3 -3 -15 -23 -26 -45 l-22 -40 -358 -3 c-281 -2 -356 0 -346
10 7 7 12 18 12 26 0 8 13 29 28 47 28 32 152 256 152 275 0 6 12 34 26 63 36
74 64 149 64 172 0 11 12 56 25 100 14 44 39 145 55 225 l30 145 0 413 c0 459
-6 424 72 398z m-688 -1093 c-4 -16 -13 -42 -21 -60 -7 -18 -13 -40 -13 -49 0
-18 -37 -98 -70 -149 -10 -16 -19 -36 -19 -43 -1 -17 -72 -122 -82 -122 -5 0
-9 -9 -9 -19 0 -11 -20 -39 -45 -63 -24 -24 -45 -47 -45 -53 0 -11 -134 -135
-145 -135 -4 0 -30 -20 -57 -45 -28 -25 -54 -45 -59 -45 -5 0 -40 -20 -78 -45
-38 -25 -74 -45 -82 -45 -8 0 -50 -18 -94 -40 -44 -22 -96 -43 -115 -46 -19
-3 -78 -19 -130 -34 -164 -49 -287 -63 -514 -57 -207 5 -275 14 -436 60 -47
14 -101 28 -120 31 -19 4 -71 24 -115 46 -44 22 -85 40 -91 40 -18 0 -204 118
-239 151 -17 16 -36 29 -42 29 -7 0 -28 19 -47 43 -19 24 -47 49 -61 57 -13 7
-27 21 -30 31 -4 10 -24 35 -46 56 -21 20 -42 46 -45 58 -4 11 -10 22 -13 25
-13 10 -81 110 -81 120 0 5 -20 48 -45 94 -25 47 -45 94 -45 105 0 10 -6 34
-14 52 -7 19 -17 44 -20 57 l-7 22 1541 0 1540 0 -6 -27z"/>
<path d="M9247 13691 c-28 -10 -69 -38 -94 -63 -39 -39 -47 -55 -59 -114 -21
-97 -5 -176 47 -237 63 -73 176 -116 252 -96 61 16 148 60 155 78 3 9 18 34
34 57 49 69 51 184 5 253 -12 19 -29 45 -37 59 -14 21 -29 31 -95 65 -37 19
-156 18 -208 -2z"/>
<path d="M10060 8601 c-19 -4 -71 -16 -115 -25 -43 -9 -93 -23 -110 -31 -50
-23 -138 -54 -199 -70 -166 -43 -266 -149 -266 -282 0 -75 24 -132 78 -190 60
-63 90 -74 191 -74 76 0 98 4 182 36 51 21 117 43 144 51 28 8 79 24 114 35
170 57 334 -34 369 -204 20 -98 40 -182 57 -237 9 -30 23 -84 31 -120 31 -136
43 -177 73 -249 44 -105 44 -106 -41 -132 -40 -11 -86 -27 -103 -34 -94 -41
-129 -55 -144 -55 -9 0 -63 -20 -121 -45 -58 -24 -114 -45 -125 -45 -11 0 -43
-11 -72 -24 -29 -14 -74 -28 -100 -31 -26 -4 -83 -13 -127 -21 -43 -8 -101
-14 -130 -14 -28 0 -172 -20 -321 -45 -148 -25 -317 -50 -375 -55 -110 -10
-130 -13 -375 -55 -82 -14 -197 -30 -255 -35 -58 -5 -199 -25 -315 -45 -115
-19 -259 -40 -320 -45 -60 -6 -135 -14 -165 -20 -219 -39 -370 -62 -465 -70
-60 -6 -200 -25 -310 -44 -110 -19 -200 -34 -200 -33 -2 8 -52 131 -66 164
-11 23 -19 52 -19 65 0 13 -21 72 -45 132 -25 61 -45 115 -45 122 0 8 35 13
113 16 148 6 209 32 260 110 47 72 61 119 53 184 -6 55 -24 104 -36 104 -4 0
-15 16 -24 35 -13 26 -33 44 -79 68 l-62 32 -601 0 -601 0 -54 -25 c-51 -24
-93 -62 -131 -119 -14 -20 -18 -47 -18 -121 1 -104 4 -114 65 -182 66 -74 123
-88 353 -88 l189 0 11 -25 c7 -14 12 -35 12 -46 0 -11 20 -69 45 -129 25 -60
45 -118 45 -128 0 -10 18 -63 41 -118 36 -89 57 -157 62 -206 1 -11 -122 -142
-332 -352 -183 -184 -347 -348 -365 -364 -17 -16 -57 -57 -88 -91 -32 -33 -65
-61 -74 -61 -9 0 -35 17 -59 38 -23 20 -68 51 -99 67 -30 16 -68 39 -83 52
-15 13 -38 26 -51 30 -14 3 -59 25 -101 49 -42 24 -84 44 -94 44 -9 0 -46 13
-80 28 -77 35 -137 53 -292 85 -66 14 -147 32 -180 39 -38 7 -139 12 -270 12
-178 0 -229 -3 -335 -23 -69 -13 -135 -27 -148 -32 -12 -5 -51 -13 -86 -19
-35 -5 -107 -28 -160 -50 -53 -22 -102 -40 -108 -40 -7 0 -40 -14 -73 -31 -33
-18 -90 -46 -127 -65 -36 -18 -69 -38 -73 -44 -4 -7 -24 -19 -44 -29 -42 -19
-160 -103 -207 -147 -18 -17 -47 -42 -66 -56 -18 -14 -59 -52 -90 -84 -32 -33
-76 -77 -98 -99 -22 -22 -40 -45 -40 -51 0 -5 -14 -23 -31 -40 -17 -16 -47
-54 -67 -84 -20 -30 -49 -70 -64 -88 -15 -18 -28 -40 -28 -48 0 -8 -11 -30
-24 -47 -25 -35 -41 -64 -110 -209 -25 -53 -46 -106 -46 -118 0 -11 -4 -28
-10 -38 -20 -36 -80 -230 -80 -260 0 -18 -8 -74 -17 -124 -25 -133 -25 -500 0
-658 27 -173 35 -207 72 -308 19 -51 35 -101 35 -111 0 -10 20 -59 45 -107 25
-49 45 -94 45 -100 0 -6 12 -29 26 -50 15 -21 40 -65 57 -97 16 -33 42 -73 57
-90 15 -18 36 -46 46 -63 29 -49 129 -168 202 -243 80 -80 180 -171 190 -171
4 0 26 -18 50 -40 24 -22 48 -40 53 -40 6 0 28 -15 49 -32 21 -18 56 -42 77
-52 21 -11 70 -39 109 -63 39 -24 76 -43 82 -43 6 0 54 -20 106 -45 53 -25
103 -45 112 -45 9 0 73 -18 143 -40 90 -29 156 -44 231 -50 58 -6 121 -12 140
-15 66 -11 325 -8 450 4 151 15 252 35 343 68 38 13 93 31 122 38 29 8 84 29
123 48 38 19 82 37 97 41 15 4 40 16 56 26 16 11 42 29 59 40 16 11 34 20 40
20 13 0 57 28 86 55 12 12 35 27 51 35 48 25 238 183 286 238 7 8 33 34 60 59
26 25 47 49 47 53 0 4 16 24 35 44 19 21 49 59 66 84 18 26 42 57 55 70 13 13
24 31 24 40 0 9 12 31 26 47 15 17 40 59 57 95 16 36 38 77 49 93 11 15 32 62
48 105 15 42 41 113 58 157 16 44 35 107 42 140 6 33 16 78 21 100 5 22 15 68
21 103 l12 62 552 0 553 0 10 -57 c20 -110 30 -139 65 -202 20 -35 36 -68 36
-75 0 -6 20 -36 45 -66 25 -30 45 -58 45 -61 0 -8 101 -109 109 -109 3 0 28
-20 56 -45 27 -25 58 -45 67 -45 9 0 20 -5 23 -10 10 -16 126 -72 165 -81 19
-4 72 -17 118 -28 112 -29 265 -29 377 -1 44 12 98 25 121 30 22 5 63 21 90
36 27 15 67 36 89 47 22 11 60 38 85 60 66 58 150 138 150 145 0 3 20 30 45
60 25 30 45 62 45 71 0 9 4 21 9 26 53 53 108 259 114 420 3 72 5 77 38 105
19 16 40 29 47 30 7 0 35 20 61 45 26 25 51 45 56 45 9 0 135 129 135 138 0 4
18 26 40 50 21 24 42 53 46 65 4 12 10 24 14 27 15 12 80 118 80 133 0 8 11
37 24 64 27 53 66 164 66 187 0 8 20 66 45 129 25 64 45 123 45 132 0 9 20 67
44 128 24 62 47 129 50 150 4 20 25 82 46 136 22 54 40 106 40 115 0 9 20 68
45 132 25 63 45 124 45 135 0 19 32 109 66 184 7 17 18 52 24 79 6 26 31 99
55 161 25 62 45 123 45 134 0 12 7 38 16 59 28 66 65 172 80 228 8 30 21 68
29 84 17 33 91 72 168 90 26 5 55 14 65 19 48 26 135 62 164 68 18 3 71 21
117 40 45 19 84 33 85 31 10 -16 86 -222 86 -234 0 -8 20 -64 45 -124 25 -60
45 -118 45 -128 0 -19 13 -53 50 -137 10 -22 26 -65 35 -95 23 -71 73 -206 92
-247 8 -17 13 -46 11 -63 -2 -27 -9 -34 -40 -45 -20 -6 -44 -19 -52 -28 -9 -8
-42 -30 -73 -48 -32 -17 -79 -49 -105 -70 -26 -22 -50 -39 -54 -39 -8 0 -91
-73 -154 -135 -25 -25 -50 -45 -57 -45 -6 0 -14 -9 -18 -20 -3 -11 -24 -35
-46 -53 -21 -19 -39 -38 -39 -43 0 -6 -20 -29 -45 -53 -25 -24 -45 -48 -45
-55 0 -6 -13 -26 -30 -44 -16 -18 -48 -65 -72 -105 -23 -39 -50 -81 -60 -91
-10 -11 -18 -26 -18 -33 0 -8 -19 -49 -42 -91 -22 -42 -45 -90 -49 -107 -4
-16 -26 -74 -48 -128 -23 -54 -41 -110 -41 -123 0 -13 -9 -57 -19 -97 -49
-188 -56 -244 -56 -482 0 -238 4 -272 51 -467 13 -53 24 -107 24 -118 0 -12
20 -71 45 -131 25 -61 45 -115 46 -122 0 -7 11 -32 24 -57 14 -25 39 -74 56
-110 17 -36 46 -86 65 -111 19 -26 34 -53 34 -62 0 -8 7 -21 16 -28 9 -7 33
-39 55 -70 21 -31 54 -74 74 -94 19 -21 35 -41 35 -44 0 -3 46 -51 103 -107
105 -104 242 -218 289 -243 15 -8 36 -21 45 -30 29 -27 80 -61 91 -61 6 0 43
-20 83 -45 40 -25 78 -45 84 -45 7 0 44 -16 84 -35 41 -20 97 -42 126 -50 29
-7 84 -25 122 -38 193 -69 539 -98 843 -69 157 15 243 33 358 73 46 16 92 29
103 29 10 0 61 20 113 45 53 25 102 45 109 45 8 0 40 17 73 38 32 21 81 49
107 62 27 13 66 39 87 57 21 18 44 33 50 33 7 0 32 17 55 38 23 20 53 46 66
56 77 62 177 158 241 234 40 47 85 99 101 115 15 17 27 35 27 42 0 6 15 29 34
50 19 21 40 50 48 64 7 14 34 62 60 106 27 44 48 84 48 89 0 4 20 49 45 98 25
50 45 98 45 109 0 17 6 36 36 105 35 81 74 296 95 523 12 125 2 306 -22 436
-6 28 -14 84 -19 125 -8 71 -63 254 -81 275 -5 5 -9 20 -9 33 0 14 -20 66 -44
116 -24 50 -51 107 -60 127 -8 20 -31 59 -51 87 -19 28 -35 58 -35 66 0 7 -6
19 -14 25 -7 6 -35 43 -60 81 -26 38 -60 81 -76 97 -17 15 -30 32 -30 37 0 17
-171 189 -267 269 -91 76 -198 154 -221 162 -12 3 -35 17 -50 30 -31 26 -261
145 -280 145 -7 0 -55 18 -108 40 -53 22 -124 44 -158 50 -35 5 -76 14 -92 20
-16 5 -81 19 -144 32 -98 19 -148 22 -330 22 -186 0 -230 -3 -324 -23 -60 -13
-114 -25 -120 -27 -11 -4 -53 86 -75 159 -29 97 -35 115 -58 164 -13 29 -30
80 -39 113 -9 34 -29 91 -45 128 -17 36 -39 99 -50 139 -10 41 -24 81 -29 91
-21 36 -60 135 -60 151 0 16 -16 62 -64 180 -14 36 -26 72 -26 82 0 15 -17 58
-56 145 -7 17 -20 57 -29 90 -8 32 -21 73 -29 89 -26 57 -66 163 -66 176 0 12
-24 99 -65 234 -13 44 -27 98 -30 120 -13 84 -39 182 -67 249 -15 38 -28 73
-28 79 0 24 -112 176 -167 227 -71 66 -111 100 -119 100 -3 0 -32 16 -65 36
-85 53 -209 84 -349 89 -63 2 -131 0 -150 -4z m-445 -2348 c-7 -21 -25 -67
-39 -102 -14 -36 -26 -73 -26 -83 0 -9 -20 -69 -45 -132 -25 -64 -45 -126 -45
-138 0 -13 -7 -36 -15 -52 -8 -15 -15 -33 -15 -38 0 -5 -9 -29 -20 -53 -11
-25 -27 -71 -35 -103 -9 -33 -33 -105 -55 -160 -22 -56 -40 -110 -40 -121 0
-10 -20 -71 -45 -134 -25 -64 -45 -123 -45 -132 0 -9 -20 -68 -45 -131 -25
-62 -45 -123 -45 -134 0 -11 -20 -72 -45 -136 -25 -63 -50 -136 -56 -161 -14
-66 -91 -183 -176 -270 -66 -67 -93 -82 -93 -51 0 31 -261 248 -298 248 -5 0
-43 15 -83 33 -112 51 -165 60 -345 60 -180 0 -232 -9 -343 -60 -40 -18 -78
-33 -83 -33 -19 0 -164 -105 -210 -152 -26 -26 -52 -48 -57 -48 -6 0 -15 18
-21 40 -5 22 -15 59 -21 83 -6 23 -17 56 -24 72 -42 95 -55 129 -55 146 0 19
-19 73 -50 144 -9 22 -22 56 -28 75 -25 87 -45 147 -58 175 -25 56 -54 140
-54 156 0 8 -20 67 -45 129 -25 62 -45 121 -45 130 0 9 -18 62 -40 118 -22 57
-43 117 -47 135 -3 17 -25 83 -49 144 -41 105 -54 163 -36 163 4 0 59 9 122
20 63 11 136 20 161 20 25 0 156 18 290 41 134 22 289 44 344 49 55 5 209 27
342 49 133 23 262 41 285 41 44 0 259 32 468 70 63 11 166 25 228 30 62 6 203
26 315 44 235 40 250 43 299 45 l37 1 -14 -37z m-3366 -663 c12 -33 29 -86 37
-117 8 -31 21 -70 29 -87 24 -53 55 -140 55 -157 0 -15 62 -179 80 -211 6 -10
10 -29 10 -42 0 -13 14 -57 31 -97 45 -110 59 -149 59 -171 0 -10 18 -61 40
-112 21 -51 44 -115 50 -142 10 -46 20 -75 61 -170 10 -23 23 -62 29 -88 5
-25 28 -91 50 -146 22 -55 40 -105 40 -110 0 -6 -154 -10 -425 -10 l-425 0 0
28 c0 15 -14 81 -30 146 -17 66 -30 129 -30 140 0 28 -24 97 -60 174 -17 35
-30 71 -30 80 0 9 -21 55 -45 101 -25 45 -45 88 -45 94 0 5 -10 24 -23 41 -13
17 -40 59 -61 94 -21 35 -51 77 -66 94 -16 17 -30 39 -33 49 -3 13 85 108 331
353 184 184 338 333 342 331 4 -2 17 -32 29 -65z m-2208 -325 c53 -8 129 -24
170 -35 41 -12 97 -28 126 -35 52 -13 294 -120 303 -135 3 -4 31 -22 63 -40
57 -32 71 -53 42 -64 -8 -3 -15 -11 -15 -18 0 -7 -16 -23 -35 -36 -20 -12 -40
-33 -46 -45 -6 -12 -25 -33 -44 -47 -19 -14 -39 -34 -45 -45 -6 -11 -24 -29
-39 -39 -15 -11 -36 -32 -47 -47 -10 -16 -36 -41 -56 -56 -20 -16 -41 -38 -47
-50 -6 -13 -16 -23 -23 -23 -7 0 -24 -14 -38 -30 -27 -32 -38 -43 -94 -95
l-37 -34 -62 30 c-76 35 -217 52 -360 43 -102 -6 -136 -14 -217 -51 -30 -14
-74 -34 -98 -44 -23 -10 -53 -30 -66 -44 -12 -13 -34 -30 -48 -38 -28 -14
-138 -129 -138 -144 0 -5 -8 -18 -18 -29 -36 -39 -61 -92 -99 -204 -37 -111
-38 -120 -38 -250 0 -125 2 -142 31 -225 17 -49 34 -102 38 -117 3 -15 12 -33
19 -40 7 -7 29 -39 50 -70 45 -68 145 -171 201 -205 23 -14 58 -36 78 -50 44
-30 205 -79 308 -93 87 -12 167 -6 265 22 39 11 87 24 107 29 38 9 140 66 146
81 2 4 10 8 18 8 12 0 43 27 142 123 12 12 22 25 22 30 0 5 13 22 29 38 16 16
41 55 56 87 14 31 32 68 40 82 l14 25 415 3 c229 1 416 0 416 -2 0 -2 -9 -32
-20 -67 -10 -35 -26 -95 -35 -134 -9 -38 -34 -106 -56 -150 -21 -45 -39 -86
-39 -93 0 -6 -20 -41 -45 -78 -25 -36 -45 -71 -45 -79 0 -7 -13 -27 -29 -43
-16 -16 -38 -44 -50 -62 -34 -57 -303 -320 -327 -320 -4 0 -30 -17 -58 -38
-61 -47 -204 -124 -278 -151 -29 -10 -84 -31 -123 -45 -71 -27 -102 -33 -325
-62 -129 -16 -265 -14 -385 7 -33 5 -90 14 -126 19 -36 5 -97 21 -135 35 -38
15 -105 40 -148 56 -43 16 -86 35 -95 43 -9 9 -37 24 -62 35 -46 21 -132 78
-137 93 -2 4 -10 8 -18 8 -8 0 -37 20 -63 45 -26 25 -51 45 -55 45 -10 0 -136
127 -136 137 0 5 -20 28 -45 52 -25 24 -45 48 -45 53 0 5 -15 28 -34 51 -18
23 -47 67 -63 97 -17 30 -40 71 -51 90 -12 20 -28 54 -36 76 -7 22 -23 60 -34
85 -73 162 -120 474 -102 679 13 142 59 373 85 428 31 65 55 122 55 132 0 13
45 93 72 129 10 13 18 31 18 40 0 10 9 27 20 39 11 12 38 47 60 79 65 93 180
213 289 302 56 45 110 85 119 88 9 4 45 26 80 50 35 24 68 43 73 43 6 0 52 20
103 45 52 25 101 45 109 45 8 0 69 16 135 35 66 18 153 38 194 43 114 15 294
13 399 -3z m8334 0 c55 -8 141 -26 190 -41 50 -14 104 -28 120 -31 17 -2 72
-24 122 -49 51 -24 97 -44 102 -44 5 0 39 -20 75 -45 37 -25 72 -45 80 -45 7
0 19 -7 26 -15 7 -9 50 -44 95 -79 95 -75 213 -198 281 -293 27 -37 56 -77 66
-87 10 -11 18 -28 18 -37 0 -10 6 -24 13 -31 22 -23 77 -118 77 -134 0 -8 16
-49 35 -91 20 -41 41 -98 46 -127 6 -28 17 -78 25 -111 31 -141 38 -198 38
-340 1 -225 -39 -418 -136 -651 -18 -45 -38 -87 -44 -95 -6 -8 -27 -43 -45
-78 -19 -35 -49 -80 -66 -101 -18 -21 -33 -43 -33 -48 0 -5 -20 -29 -45 -53
-25 -24 -45 -47 -45 -52 0 -11 -126 -137 -137 -137 -4 0 -25 -18 -46 -40 -22
-21 -48 -42 -60 -46 -12 -4 -27 -13 -35 -20 -23 -24 -95 -69 -139 -89 -24 -10
-43 -21 -43 -25 0 -7 -95 -50 -111 -50 -5 0 -32 -11 -61 -24 -72 -33 -140 -55
-191 -62 -23 -3 -80 -13 -127 -22 -117 -21 -366 -21 -488 1 -50 9 -104 17
-120 17 -15 1 -56 12 -92 25 -36 13 -98 35 -138 49 -85 30 -226 104 -297 155
-27 20 -57 41 -66 46 -51 32 -219 180 -219 193 0 5 -16 24 -36 43 -20 18 -46
50 -59 69 -13 19 -37 50 -54 69 -17 19 -31 41 -31 49 0 7 -9 26 -21 40 -32 43
-69 102 -69 113 0 5 -17 46 -39 92 -39 84 -94 273 -117 407 -18 105 -17 348 1
456 14 78 41 184 77 304 6 19 26 66 44 104 19 39 34 75 34 81 0 27 169 274
228 332 23 24 42 46 42 50 0 11 52 63 63 63 5 0 29 19 52 43 51 52 133 114
200 152 28 15 53 33 57 39 4 6 11 0 17 -14 5 -14 23 -59 40 -100 17 -41 31
-82 31 -91 0 -16 13 -53 44 -124 7 -16 21 -55 31 -85 9 -30 34 -100 55 -155
22 -55 44 -118 49 -140 6 -23 29 -85 51 -140 22 -54 40 -105 40 -113 0 -8 20
-65 45 -126 25 -62 45 -120 45 -129 0 -8 19 -60 41 -114 23 -54 44 -115 48
-135 13 -80 110 -174 206 -199 59 -16 129 -4 186 31 27 16 53 30 57 30 4 0 12
9 17 19 6 11 23 42 39 68 43 69 42 151 -1 249 -18 38 -37 92 -43 118 -6 27
-29 91 -50 142 -22 51 -40 101 -40 111 0 10 -21 67 -45 127 -25 61 -45 117
-45 126 0 16 -28 89 -69 183 -11 27 -21 57 -21 68 0 17 -24 83 -64 174 -13 29
-24 62 -44 135 -6 19 -26 73 -45 120 -20 47 -37 101 -39 120 l-3 35 75 11
c106 16 278 16 395 -1z m-7187 -726 c15 -28 37 -64 50 -80 13 -16 34 -56 47
-90 14 -34 31 -72 38 -83 15 -24 38 -91 62 -186 10 -36 21 -76 25 -90 5 -14
11 -37 14 -52 l6 -28 -415 0 -416 0 -15 36 c-8 20 -14 40 -12 46 5 14 571 578
580 578 4 0 20 -23 36 -51z m-1298 -618 c19 -5 47 -12 62 -15 31 -7 117 -94
135 -138 7 -16 13 -67 13 -112 0 -76 -2 -85 -34 -132 -58 -86 -172 -143 -260
-129 -22 4 -62 20 -89 36 -26 16 -51 29 -56 29 -4 0 -26 28 -47 63 -32 52 -39
73 -42 128 -4 72 12 118 70 192 35 44 56 57 123 73 63 15 81 16 125 5z m4206
-5 c165 -31 279 -162 309 -353 8 -52 -28 -204 -58 -248 -82 -118 -211 -188
-343 -188 -41 0 -84 5 -97 10 -12 6 -44 19 -72 30 -70 26 -166 124 -196 200
-18 47 -23 78 -23 158 0 59 6 118 15 145 35 110 160 223 273 245 83 17 110 17
192 1z"/>
</g>
</svg>
